<?xml version="1.0" encoding="utf-8"?>
<!-- Generator: Adobe Illustrator 23.0.0, SVG Export Plug-In . SVG Version: 6.00 Build 0)  -->
<svg version="1.1" xmlns="http://www.w3.org/2000/svg" xmlns:xlink="http://www.w3.org/1999/xlink" x="0px" y="0px"
	 viewBox="0 0 193 34.7" style="enable-background:new 0 0 193 34.7;" xml:space="preserve">
<style type="text/css">
	.st0{display:none;}
	.st1{display:inline;}
	.st2{fill:#FFFFFF;}
	.st3{font-family:'Wkwkwk';}
	.st4{font-size:35.2327px;}
</style>
<g id="Layer_1" class="st0">
	<g transform="translate(0.000000,75.000000) scale(0.100000,-0.100000)" class="st1">
		<path class="st2" d="M583,930.6c-146-40-253-127-253-203c0-42,33-65,130-91c148-40,188-67,175-118c-17-70-190-183-365-238
			c-91-28-192-37-210-19c-38,38,131,189,280,251c30,12,47,23,38,23s-66-25-127-55c-82-41-128-72-176-118c-66-63-76-87-55-127
			c61-114,557,48,640,210c50,99,10,147-172,200c-88,26-122,51-113,83c11,38,94,106,179,147c96,45,153,57,180,37c19-14,19-15,0-48
			c-20-34-134-119-160-119c-8,0-14,8-15,18c0,10-6,5-17-16c-14-29-14-34-2-43c60-39,230,87,230,171C770,934.6,686,959.6,583,930.6z"
			/>
		<path class="st2" d="M1886,640.6c-54-82-218-246-232-232c-10,9,32,92,67,131c32,37,32,39,14,52c-30,22-42,17-73-28
			c-29-41-154-168-166-168c-20,0,85,177,110,187c18,7,6,31-18,39c-13,4-28-2-43-16c-28-26-91-49-117-42c-10,2-23,13-29,23
			c-5,11-14,19-19,19c-17,0-41-33-35-50c10-31-134-190-172-190c-82,0,99,235,199,259l43,10l-56-3c-82-4-124-28-272-155
			c-140-121-154-100-37,54c42,55,48,69,40,86c-6,10-16,19-23,19c-17,0-80-43-152-103c-33-28-69-58-79-66c-26-21,37,69,76,108
			c25,26,28,34,18,46c-7,8-21,15-31,15c-34,0-169-201-169-251c0-35,20-49,34-24c30,53,140,154,230,211c29,18,29,18-8-30
			c-74-97-92-156-54-180c23-14,56,5,141,84c39,36,63,54,55,40c-9-14-19-39-23-57c-5-27-2-37,20-58c21-22,31-25,58-20
			c74,16,173,91,202,155c16,36,22,40,54,40c20,0,47,7,59,16c20,14,20,11-7-35c-17-27-37-71-46-97c-14-43-14-48,1-65
			c22-24,37-16,115,64c34,34,58,53,53,42c-4-11-8-40-8-65c-1-66,25-66,99,2c62,56,166,181,190,229C1914,672.6,1908,674.6,1886,640.6
			z"/>
	</g>
</g>
<g id="Layer_2">
	<g>
		<g>
			<text transform="matrix(1 0 0 1 0 26.219)" class="st2 st3 st4">oktaryan yp</text>
		</g>
	</g>
</g>
</svg>
